<mxfile host="65bd71144e" modified="2021-02-09T16:55:02.847Z" agent="5.0 (Macintosh; Intel Mac OS X 11_0_0) AppleWebKit/537.36 (KHTML, like Gecko) Code/1.52.1 Chrome/83.0.4103.122 Electron/9.3.5 Safari/537.36" version="14.2.4" etag="eRfR01IGv5_Q8VY4q3vR" type="embed">
    <diagram id="GrUTYGOCGlqWSSIBQcsa" name="ページ1">
        <mxGraphModel dx="915" dy="708" grid="1" gridSize="10" guides="1" tooltips="1" connect="1" arrows="1" fold="1" page="1" pageScale="1" pageWidth="850" pageHeight="1100" math="0" shadow="0">
            <root>
                <mxCell id="0"/>
                <mxCell id="1" parent="0"/>
                <mxCell id="22" value="" style="rounded=0;whiteSpace=wrap;html=1;dashed=1;fontSize=17;fillColor=#f5f5f5;strokeColor=#666666;fontColor=#333333;" vertex="1" parent="1">
                    <mxGeometry x="40" y="40" width="770" height="410" as="geometry"/>
                </mxCell>
                <mxCell id="21" value="" style="group" vertex="1" connectable="0" parent="1">
                    <mxGeometry x="350" y="80" width="440" height="330" as="geometry"/>
                </mxCell>
                <mxCell id="13" value="" style="rounded=0;whiteSpace=wrap;html=1;fillColor=none;dashed=1;strokeColor=#FF8000;" vertex="1" parent="21">
                    <mxGeometry width="440" height="330" as="geometry"/>
                </mxCell>
                <mxCell id="3" value="" style="rounded=0;whiteSpace=wrap;html=1;fillColor=none;dashed=1;" vertex="1" parent="21">
                    <mxGeometry x="40" y="65" width="150" height="240" as="geometry"/>
                </mxCell>
                <mxCell id="4" value="" style="rounded=0;whiteSpace=wrap;html=1;fillColor=none;dashed=1;" vertex="1" parent="21">
                    <mxGeometry x="250" y="65" width="150" height="240" as="geometry"/>
                </mxCell>
                <mxCell id="10" value="" style="shape=image;verticalLabelPosition=bottom;labelBackgroundColor=#ffffff;verticalAlign=top;aspect=fixed;imageAspect=0;image=data:image/svg+xml,PHN2ZyB4bWxucz0iaHR0cDovL3d3dy53My5vcmcvMjAwMC9zdmciIHdpZHRoPSIxMzkuMzU5IiBoZWlnaHQ9Ijk1LjQxNiIgdmlld0JveD0iMCAwIDEzOS4zNTkgOTUuNDE2Ij48cGF0aCBmaWxsPSIjZmI1MDNiIiBkPSJNMTM4LjgwNSw0NC41NjhjLS45OTQtLjk5NC0xMy43NDgtMTcuMDYxLTE1LjktMTkuNzEyLTIuMzE5LTIuNjUtMy4zMTMtMi4xNTMtNC44LTEuOTg4cy0xNy41NTgsMi45ODItMTkuMzgsMy4xNDdjLTEuODIyLjMzMS0yLjk4Mi45OTQtMS44MjIsMi42NS45OTQsMS40OTEsMTEuNiwxNi40LDEzLjkxNCwxOS44NzdsLTQyLjIzOSwxMC4xTDM1LjExMywyLjQ5NEMzMy43ODguNTA3LDMzLjQ1Ni0uMTU2LDMwLjQ3NS4wMVM0LjEzNywyLjE2MywyLjQ4MSwyLjE2M0MuODI1LDIuMzI5LTEsMi45OTEuNjU5LDYuOTY3UzI4LjgxOCw2Ny45MjMsMjkuNDgxLDY5LjU4czIuNjUsNC4zMDcsNy4xMjMsMy4zMTNjNC42MzgtMS4xNiwyMC41NC01LjMsMjkuMzE5LTcuNjIsNC42MzgsOC4yODIsMTMuOTE0LDI1LjE3OCwxNS43MzYsMjcuNjYyLDIuMzE5LDMuMzEzLDMuOTc1LDIuNjUsNy40NTQsMS42NTYsMi44MTYtLjgyOCw0My40LTE1LjQsNDUuMjIxLTE2LjIzM3MyLjk4Mi0xLjMyNSwxLjY1Ni0zLjE0N2MtLjk5NC0xLjMyNS0xMS42LTE1LjczNi0xNy4yMjctMjMuMTksMy44MS0uOTk0LDE3LjU1OC00LjYzOCwxOS4wNDktNS4xMzUsMS42NTYtLjUsMS45ODgtMS4zMjUuOTk0LTIuMzE5Wk02Mi4xMTIsNjAuM2MtLjUuMTY2LTI0LjE4NCw1LjgtMjUuMzQzLDYuMTI5LTEuMzI1LjMzMS0xLjMyNS4xNjYtMS4zMjUtLjMzMUMzNS4xMTMsNjUuNiw3LjI4NSw3Ljk2MSw2Ljc4OCw3LjNjLS4zMzEtLjY2My0uMzMxLTEuMzI1LDAtMS4zMjVTMjkuMTQ5LDMuOTg1LDI5LjgxMiwzLjk4NWMuODI4LDAsLjY2My4xNjYuOTk0LjY2MywwLDAsMzAuOTc1LDUzLjUsMzEuNDcyLDU0LjMzMS42NjMuODI4LjMzMSwxLjE2LS4xNjYsMS4zMjVaTTEyOC43LDcyLjcyN2MuMzMxLjY2My44MjguOTk0LS41LDEuMzI1LTEuMTU5LjUtMzkuOTIsMTMuNTgzLTQwLjc0OCwxMy45MTRzLTEuMzI1LjUtMi4zMTktLjk5NC0xMy41ODMtMjMuMTktMTMuNTgzLTIzLjE5TDExMi44LDUzLjAxNWMuOTk0LS4zMzEsMS4zMjUtLjUsMS45ODguNS42NjMsMS4xNiwxMy41ODMsMTguNzE4LDEzLjkxNCwxOS4yMTVabTIuNjUtMjkuMTUzYy0uOTk0LjE2Ni0xNi4wNjcsMy45NzUtMTYuMDY3LDMuOTc1bC0xMi40MjMtMTYuOWMtLjMzMS0uNS0uNjYzLS45OTQuMTY2LTEuMTZzMTQuOTA4LTIuNjUsMTUuNTctMi44MTYsMS4xNi0uMzMxLDEuOTg4LjgyOGMuODI4Ljk5NCwxMS40MjksMTQuNTc3LDExLjkyNiwxNS4wNzRzLS4xNjYuODI4LTEuMTYuOTk0WiIgdHJhbnNmb3JtPSJ0cmFuc2xhdGUoLS4wMDYgLjAxNSkiLz48L3N2Zz4=;" vertex="1" parent="21">
                    <mxGeometry x="73" y="103.13" width="84.13" height="57.5" as="geometry"/>
                </mxCell>
                <mxCell id="11" value="" style="shape=image;verticalLabelPosition=bottom;labelBackgroundColor=#ffffff;verticalAlign=top;aspect=fixed;imageAspect=0;image=data:image/svg+xml,PHN2ZyB4bWxucz0iaHR0cDovL3d3dy53My5vcmcvMjAwMC9zdmciIHZpZXdCb3g9IjAgMCAxMjggMTI4Ij48cGF0aCBmaWxsPSIjODNDRDI5IiBkPSJNMTE0LjMyNSA4MC43NDljLS4yOSAwLS41NzgtLjA3Ni0uODMyLS4yMjRsLTIuNjUtMS41NjhjLS4zOTYtLjIyMS0uMjAzLS4zLS4wNzItLjM0NS41MjgtLjE4NC42MzUtLjIyNyAxLjE5OC0uNTQ1LjA1OS0uMDMzLjEzNi0uMDIxLjE5Ny4wMTVsMi4wMzUgMS4yMDljLjA3NC4wNDEuMTc5LjA0MS4yNDYgMGw3LjkzNy00LjU4MWMuMDc1LS4wNDIuMTIyLS4xMjcuMTIyLS4yMTV2LTkuMTZjMC0uMDktLjA0Ny0uMTczLS4xMjMtLjIxOWwtNy45MzQtNC41NzdjLS4wNzQtLjA0Mi0uMTcxLS4wNDItLjI0NSAwbC03LjkzMyA0LjU3OGMtLjA3Ni4wNDUtLjEyNS4xMzEtLjEyNS4yMTh2OS4xNmMwIC4wODguMDQ5LjE3MS4xMjUuMjEybDIuMTc0IDEuMjU3YzEuMTguNTg5IDEuOTAzLS4xMDUgMS45MDMtLjgwM3YtOS4wNDVjMC0uMTI3LjEwMy0uMjI4LjIzLS4yMjhoMS4wMDdjLjEyNSAwIC4yMjkuMTAxLjIyOS4yMjh2OS4wNDVjMCAxLjU3NC0uODU3IDIuNDc3LTIuMzUgMi40NzctLjQ1OSAwLS44MiAwLTEuODI4LS40OTZsLTIuMDgxLTEuMTk4Yy0uNTE1LS4yOTgtLjgzMi0uODU0LS44MzItMS40NDh2LTkuMTZjMC0uNTk1LjMxNy0xLjE1LjgzMi0xLjQ0Nmw3LjkzNy00LjU4N2MuNTAyLS4yODMgMS4xNjktLjI4MyAxLjY2NyAwbDcuOTM3IDQuNTg3Yy41MTQuMjk3LjgzMy44NTIuODMzIDEuNDQ2djkuMTZjMCAuNTk1LS4zMTkgMS4xNDgtLjgzMyAxLjQ0OGwtNy45MzcgNC41ODJjLS4yNTIuMTQ3LS41MzkuMjIzLS44MzQuMjIzTTExNi43NzggNzQuNDM4Yy0zLjQ3NSAwLTQuMjAyLTEuNTk1LTQuMjAyLTIuOTMyIDAtLjEyNi4xMDMtLjIyOS4yMy0uMjI5aDEuMDI2Yy4xMTUgMCAuMjEuMDgyLjIyOC4xOTQuMTU0IDEuMDQ1LjYxNyAxLjU3MiAyLjcxOCAxLjU3MiAxLjY3MSAwIDIuMzgzLS4zNzggMi4zODMtMS4yNjYgMC0uNTEyLS4yMDItLjg5MS0yLjgtMS4xNDYtMi4xNzItLjIxNS0zLjUxNS0uNjk0LTMuNTE1LTIuNDMzIDAtMS42MDEgMS4zNS0yLjU1NyAzLjYxMi0yLjU1NyAyLjU0MyAwIDMuODAxLjg4MyAzLjk2IDIuNzc3LjAwNi4wNjQtLjAxNy4xMjctLjA2LjE3Ni0uMDQ0LjA0NS0uMTA0LjA3My0uMTY4LjA3M2gtMS4wMzFjLS4xMDcgMC0uMjAxLS4wNzUtLjIyMy0uMTc5LS4yNDgtMS4xLS44NDgtMS40NTEtMi40NzktMS40NTEtMS44MjUgMC0yLjAzNy42MzctMi4wMzcgMS4xMTIgMCAuNTc3LjI1Ljc0NSAyLjcxNSAxLjA3MSAyLjQzOS4zMjMgMy41OTguNzc5IDMuNTk4IDIuNDk0LjAwMSAxLjczMy0xLjQ0MSAyLjcyNC0zLjk1NSAyLjcyNCIvPjxwYXRoIGZpbGw9IiM0MDQxMzciIGQ9Ik05Ny45ODIgNjguNDNjLjMxMy0uMTgzLjUwNi0uNTE3LjUwNi0uODh2LTIuMzU0YzAtLjM2Mi0uMTkyLS42OTYtLjUwNi0uODc5bC04LjM2NC00Ljg1NmMtLjMxNS0uMTgzLS43MDMtLjE4NC0xLjAxOS0uMDAybC04LjQxNiA0Ljg1OWMtLjMxNC4xODItLjUwOC41MTctLjUwOC44OHY5LjcxNmMwIC4zNjUuMTk2LjcwMy41MTQuODg0bDguMzYzIDQuNzY1Yy4zMDguMTc3LjY4Ni4xNzguOTk3LjAwNmw1LjA1OC0yLjgxMmMuMTYxLS4wOS4yNjEtLjI1OC4yNjItLjQ0LjAwMS0uMTg0LS4wOTctLjM1NC0uMjU2LS40NDVsLTguNDY4LTQuODZjLS4xNTktLjA5MS0uMjU2LS4yNTktLjI1Ni0uNDR2LTMuMDQ2YzAtLjE4Mi4wOTctLjM0OS4yNTQtLjQzOWwyLjYzNy0xLjUyYy4xNTYtLjA5MS4zNS0uMDkxLjUwNyAwbDIuNjM3IDEuNTJjLjE1OC4wOTEuMjU1LjI1OC4yNTUuNDM5djIuMzk2YzAgLjE4My4wOTcuMzUxLjI1NC40NDEuMTU4LjA5MS4zNTIuMDkxLjUxLS4wMDFsNS4wMzktMi45MzIiLz48cGF0aCBmaWxsPSIjODNDRDI5IiBkPSJNODguOTg0IDY3Ljk3NGMuMDYxLS4wMzQuMTM1LS4wMzQuMTk1IDBsMS42MTUuOTMzYy4wNi4wMzUuMDk3LjEuMDk3LjE2OXYxLjg2NWMwIC4wNy0uMDM3LjEzNC0uMDk3LjE2OWwtMS42MTUuOTMyYy0uMDYuMDM1LS4xMzUuMDM1LS4xOTUgMGwtMS42MTQtLjkzMmMtLjA2MS0uMDM1LS4wOTgtLjA5OS0uMDk4LS4xNjl2LTEuODY1YzAtLjA2OS4wMzctLjEzNC4wOTgtLjE2OWwxLjYxNC0uOTMzIi8+PHBhdGggZmlsbD0iIzQwNDEzNyIgZD0iTTY3LjA4MyA3MS44NTRjMCAuMDktLjA0OC4xNzQtLjEyNy4yMmwtMi44OSAxLjY2NmMtLjA3OS4wNDYtLjE3Ni4wNDYtLjI1NCAwbC0yLjg5LTEuNjY2Yy0uMDc5LS4wNDYtLjEyNy0uMTMtLjEyNy0uMjJ2LTMuMzM4YzAtLjA5LjA0OS0uMTc1LjEyNy0uMjIxbDIuODktMS42NjhjLjA3OS0uMDQ3LjE3Ni0uMDQ3LjI1NSAwbDIuODkxIDEuNjY4Yy4wNzguMDQ2LjEyNi4xMzEuMTI2LjIyMXYzLjMzOHptLjc4MS0yNC43MTZjLS4xNTctLjA4Ny0uMzQ5LS4wODUtLjUwNS4wMDYtLjE1NS4wOTItLjI1MS4yNTgtLjI1MS40Mzh2MTIuOTE1YzAgLjEyNi0uMDY4LjI0NC0uMTc3LjMwOC0uMTEuMDYzLS4yNDYuMDYzLS4zNTYgMGwtMi4xMDgtMS4yMTVjLS4zMTQtLjE4MS0uNzAxLS4xODEtMS4wMTUgMGwtOC40MTggNC44NThjLS4zMTUuMTgyLS41MDkuNTE4LS41MDkuODgxdjkuNzE5YzAgLjM2My4xOTQuNjk4LjUwOC44ODFsOC40MTggNC44NjFjLjMxNC4xODIuNzAyLjE4MiAxLjAxNyAwbDguNDItNC44NjFjLjMxNC0uMTgzLjUwOC0uNTE4LjUwOC0uODgxdi0yNC4yMjdjMC0uMzY4LS4yLS43MDgtLjUyMS0uODg4bC01LjAxMS0yLjc5NSIvPjxwYXRoIGZpbGw9IiM4M0NEMjkiIGQ9Ik0zOC4yMzggNTkuNDA3Yy4zMTQtLjE4Mi43MDItLjE4MiAxLjAxNiAwbDguNDE4IDQuODU3Yy4zMTQuMTgyLjUwOC41MTguNTA4Ljg4MXY5LjcyMmMwIC4zNjMtLjE5NC42OTktLjUwOC44ODFsLTguNDE3IDQuODYxYy0uMzE0LjE4MS0uNzAyLjE4MS0xLjAxNyAwbC04LjQxNS00Ljg2MWMtLjMxNC0uMTgyLS41MDgtLjUxOC0uNTA4LS44ODF2LTkuNzIzYzAtLjM2Mi4xOTQtLjY5OC41MDgtLjg4bDguNDE1LTQuODU3Ii8+PHBhdGggZmlsbD0iIzQwNDEzNyIgZD0iTTIyLjkzIDY1LjA2NGMwLS4zNjYtLjE5Mi0uNzAyLS41MDgtLjg4M2wtOC40MTUtNC44NDNjLS4xNDQtLjA4NC0uMzAzLS4xMjctLjQ2NC0uMTMzaC0uMDg3Yy0uMTYuMDA2LS4zMi4wNDktLjQ2NC4xMzNsLTguNDE2IDQuODQzYy0uMzEzLjE4MS0uNTA5LjUxNy0uNTA5Ljg4M2wuMDE4IDEzLjA0YzAgLjE4Mi4wOTUuMzUxLjI1NC40MzkuMTU2LjA5NC4zNDkuMDk0LjUwNSAwbDUtMi44NjRjLjMxNi0uMTg4LjUwOS0uNTE5LjUwOS0uODgydi02LjA5MmMwLS4zNjQuMTkyLS42OTkuNTA3LS44ODFsMi4xMy0xLjIyNmMuMTU4LS4wOTMuMzMyLS4xMzcuNTA4LS4xMzcuMTc0IDAgLjM1Mi4wNDQuNTA3LjEzN2wyLjEyOCAxLjIyNmMuMzE1LjE4Mi41MDkuNTE3LjUwOS44ODF2Ni4wOTJjMCAuMzYzLjE5NS42OTYuNTA5Ljg4Mmw1IDIuODY0Yy4xNTcuMDk0LjM1My4wOTQuNTA4IDAgLjE1NS0uMDg5LjI1Mi0uMjU4LjI1Mi0uNDM5bC4wMTktMTMuMDQiLz48L3N2Zz4=;" vertex="1" parent="21">
                    <mxGeometry x="280" y="135" width="90" height="90" as="geometry"/>
                </mxCell>
                <mxCell id="12" value="" style="shape=image;verticalLabelPosition=bottom;labelBackgroundColor=#ffffff;verticalAlign=top;aspect=fixed;imageAspect=0;image=data:image/svg+xml,PHN2ZyB4bWxucz0iaHR0cDovL3d3dy53My5vcmcvMjAwMC9zdmciIHZpZXdCb3g9IjAgMCAxMjggMTI4Ij48cGF0aCBmaWxsPSIjMDA2MThBIiBkPSJNMi4wMDEgOTAuNDU4aDQuMTA4di0xNi4yMjNsNi4zNiAxNC4xNDNjLjc1IDEuNzEyIDEuNzc3IDIuMzE3IDMuNzkyIDIuMzE3czMuMDAzLS42MDUgMy43NTMtMi4zMTdsNi4zNi0xNC4xNDN2MTYuMjIzaDQuMTA4di0xNi4xOTZjMC0xLjU4LS42MzItMi4zNDUtMS45MzYtMi43MzktMy4xMjEtLjk3NC01LjIxNS0uMTMxLTYuMTYzIDEuOTc2bC02LjI0MSAxMy45NTgtNi4wNDMtMTMuOTU5Yy0uOTA5LTIuMTA2LTMuMDQyLTIuOTQ5LTYuMTYzLTEuOTc2LTEuMzA0LjM5NS0xLjkzNiAxLjE1OS0xLjkzNiAyLjczOXYxNi4xOTd6TTMzLjg5OSA3Ny4yNTJoNC4xMDd2OC45MzhjLS4wMzguNDg1LjE1NiAxLjYyNSAyLjQwNiAxLjY2MSAxLjE0OC4wMTggOC44NjIgMCA4LjkzNCAwdi0xMC42NDNoNC4xMTdjLjAxOSAwLS4wMDQgMTQuNTE0LS4wMDQgMTQuNTc0LjAyMiAzLjU4LTQuNDQxIDQuMzU3LTYuNDk5IDQuNDE3aC0xMi45NzJ2LTIuNzY0Yy4wMjIgMCAxMi45NjMuMDAzIDEyLjk5NS0uMDAxIDIuNjQ1LS4yNzkgMi4zMzItMS41OTMgMi4zMzEtMi4wMzV2LTEuMDc4aC04LjczMWMtNC4wNjItLjAzNy02LjY1LTEuODEtNi42ODMtMy44NS0uMDAyLS4xODcuMDg5LTkuMTI5LS4wMDEtOS4yMTl6Ii8+PHBhdGggZmlsbD0iI0U0OEUwMCIgZD0iTTU2LjYzIDkwLjQ1OGgxMS44MTJjMS4zODMgMCAyLjcyNy0uMjg5IDMuNzkzLS43ODkgMS43NzctLjgxNiAyLjY0Ni0xLjkyMiAyLjY0Ni0zLjM3MnYtMy4wMDJjMC0xLjE4NS0uOTg3LTIuMjkyLTIuOTIzLTMuMDI4LTEuMDI3LS4zOTYtMi4yOTItLjYwNS0zLjUxNy0uNjA1aC00Ljk3OGMtMS42NTkgMC0yLjQ0OS0uNS0yLjY0Ni0xLjYwNi0uMDM5LS4xMzItLjAzOS0uMjM3LS4wMzktLjM2OXYtMS44N2MwLS4xMDUgMC0uMjExLjAzOS0uMzQyLjE5Ny0uODQzLjYzMi0xLjA4IDIuMDk0LTEuMjEybC4zOTUtLjAyNmgxMS43MzN2LTIuNzM4aC0xMS41MzVjLTEuNjU5IDAtMi41MjguMTA1LTMuMzE4LjM0Mi0yLjQ0OS43NjQtMy41MTcgMS45NzUtMy41MTcgNC4wODJ2Mi4zOTZjMCAxLjg0NCAyLjA5NSAzLjQyNCA1LjYxIDMuNzkzLjM5Ni4wMjUuNzkuMDUzIDEuMTg1LjA1M2g0LjI2N2MuMTU4IDAgLjMxNiAwIC40MzUuMDI1IDEuMzA0LjEwNSAxLjg1Ni4zNDMgMi4yNTIuODE2LjIzNy4yMzcuMzE1LjQ3NS4zMTUuNzM3djIuMzk3YzAgLjI4OS0uMTk3LjY1OC0uNTkyLjk3NC0uMzU1LjMxNi0uOTQ4LjUyNy0xLjczOC41OGwtLjQzNS4wMjZoLTExLjMzOHYyLjczOHpNMTAwLjUxMSA4NS42OTJjMCAyLjgxNyAyLjA5NCA0LjM5NyA2LjMyIDQuNzE0LjM5NS4wMjYuNzkuMDUyIDEuMTg1LjA1MmgxMC43MDZ2LTIuNzM4aC0xMC43ODRjLTIuNDEgMC0zLjMxOC0uNjA2LTMuMzE4LTIuMDU1di0xNC4xNjhoLTQuMTA4djE0LjE5NXpNNzcuNTAzIDg1LjgzNHYtOS43NjVjMC0yLjQ4IDEuNzQyLTMuOTg1IDUuMTg2LTQuNDYuMzU2LS4wNTMuNzUzLS4wNzkgMS4xMDgtLjA3OWg3Ljc5OWMuMzk2IDAgLjc1Mi4wMjYgMS4xNDcuMDc5IDMuNDQ0LjQ3NSA1LjE4NyAxLjk3OSA1LjE4NyA0LjQ2djkuNzY1YzAgMi4wMTQtLjc0IDMuMDktMi40NDUgMy43OTJsNC4wNDggMy42NTNoLTQuNzcxbC0zLjI3NC0yLjk1Ni0zLjI5Ni4yMDloLTQuMzk1Yy0uNzUyIDAtMS41NDMtLjEwNS0yLjQxNC0uMzQzLTIuNjEzLS43MTItMy44OC0yLjA4NS0zLjg4LTQuMzU1em00LjQzNC0uMjM3YzAgLjEzMi4wMzkuMjY1LjA3OS40MjMuMjM3IDEuMTM1IDEuMzA3IDEuNzY4IDIuOTI5IDEuNzY4aDMuNzMybC0zLjQyOC0zLjA5NWg0Ljc3MWwyLjk4OSAyLjdjLjU1Mi0uMjk1LjkxNC0uNzQzIDEuMDQxLTEuMzIuMDM5LS4xMzIuMDM5LS4yNjQuMDM5LS4zOTZ2LTkuMzY4YzAtLjEwNSAwLS4yMzgtLjAzOS0uMzctLjIzOC0xLjA1Ni0xLjMwNy0xLjY2Mi0yLjg5LTEuNjYyaC02LjIxNmMtMS44MiAwLTMuMDA4Ljc5Mi0zLjAwOCAyLjAzMnY5LjI4OHoiLz48cGF0aCBmaWxsPSIjMDA2MThBIiBkPSJNMTIyLjMzNiA2Ni45NTJjLTIuNTI1LS4wNjktNC40NTQuMTY2LTYuMTA0Ljg2MS0uNDY5LjE5OC0xLjIxNi4yMDMtMS4yOTIuNzkuMjU3LjI3MS4yOTcuNjc0LjUwMiAxLjAwNi4zOTQuNjM3IDEuMDU5IDEuNDkxIDEuNjUyIDEuOTM4LjY0Ny40ODkgMS4zMTUgMS4wMTMgMi4wMTEgMS40MzcgMS4yMzUuNzU0IDIuNjE1IDEuMTg0IDMuODA2IDEuOTM4LjcwMS40NDYgMS4zOTcgMS4wMDYgMi4wODIgMS41MDkuMzM5LjI0Ny41NjUuNjM0IDEuMDA2Ljc4OXYtLjA3MWMtLjIzMS0uMjk0LS4yOTEtLjY5OC0uNTAzLTEuMDA2bC0uOTM0LS45MzRjLS45MTMtMS4yMTItMi4wNzEtMi4yNzUtMy4zMDQtMy4xNTktLjk4Mi0uNzA1LTMuMTgtMS42NTgtMy41OS0yLjgwMWwtLjA3Mi0uMDcxYy42OTYtLjA3OSAxLjUxMi0uMzMxIDIuMTU0LS41MDMgMS4wOC0uMjkgMi4wNDUtLjIxNSAzLjE2LS41MDNsMS41MDgtLjQzMnYtLjI4NmMtLjU2My0uNTc4LS45NjYtMS4zNDQtMS41OC0xLjg2Ny0xLjYwNy0xLjM2OS0zLjM2My0yLjczNy01LjE3LTMuODc5LTEuMDAyLS42MzItMi4yNDEtMS4wNDMtMy4zMDQtMS41NzktLjM1Ni0uMTgxLS45ODQtLjI3NC0xLjIyMS0uNTc1LS41NTktLjcxMS0uODYyLTEuNjEyLTEuMjkzLTIuNDQxLS45LTEuNzM1LTEuNzg2LTMuNjMxLTIuNTg1LTUuNDU4LS41NDQtMS4yNDUtLjktMi40NzMtMS41NzktMy41OS0zLjI2MS01LjM2MS02Ljc3MS04LjU5Ny0xMi4yMDgtMTEuNzc3LTEuMTU3LS42NzctMi41NS0uOTQzLTQuMDIxLTEuMjkybC0yLjM3LS4xNDRjLS40ODEtLjIwMS0uOTgzLS43OTEtMS40MzYtMS4wNzctMS44MDItMS4xMzgtNi40MjItMy42MTMtNy43NTYtLjM1OC0uODQyIDIuMDU0IDEuMjYgNC4wNTggMi4wMTEgNS4wOTkuNTI3LjczIDEuMjAzIDEuNTQ4IDEuNTggMi4zNjkuMjQ4LjU0LjI5IDEuMDgxLjUwMyAxLjY1Mi41MjEgMS40MDYuOTc2IDIuOTM3IDEuNjUxIDQuMjM2LjM0MS42NTguNzE4IDEuMzUxIDEuMTQ5IDEuOTM5LjI2NC4zNi43MTguNTIuNzg5IDEuMDc3LS40NDMuNjItLjQ2OSAxLjU4NC0uNzE4IDIuMzY5LTEuMTIyIDMuNTM5LS42OTkgNy45MzguOTM0IDEwLjU1Ny41MDEuODA1IDEuNjgxIDIuNTI5IDMuMzAzIDEuODY3IDEuNDE5LS41NzggMS4xMDMtMi4zNjkgMS41MDktMy45NS4wOTItLjM1Ny4wMzUtLjYyMS4yMTUtLjg2MXYuMDcybDEuMjkzIDIuNTg1Yy45NTcgMS41NDEgMi42NTQgMy4xNSA0LjA5MyA0LjIzNy43NDYuNTYzIDEuMzM0IDEuNTM4IDIuMjk4IDEuODY3di0uMDczaC0uMDcxYy0uMTg4LS4yOTEtLjQ3OS0uNDExLS43MTktLjY0Ni0uNTYyLS41NTEtMS4xODctMS4yMzUtMS42NTEtMS44NjctMS4zMDktMS43NzYtMi40NjUtMy43MjEtMy41MTktNS43NDUtLjUwMy0uOTY2LS45NC0yLjAzMi0xLjM2NC0zLjAxNi0uMTY0LS4zNzktLjE2Mi0uOTUzLS41MDItMS4xNDgtLjQ2Ni43Mi0xLjE0OSAxLjMwMy0xLjUwOSAyLjE1NC0uNTc0IDEuMzYtLjY0OCAzLjAxOS0uODYxIDQuNzM5bC0uMTQ0LjA3MWMtMS4wMDEtLjI0MS0xLjM1Mi0xLjI3MS0xLjcyNC0yLjE1NC0uOTQtMi4yMzMtMS4xMTUtNS44My0uMjg3LTguNDAxLjIxNC0uNjY2IDEuMTgxLTIuNzYxLjc4OS0zLjM3Ni0uMTg3LS42MTMtLjgwNC0uOTY3LTEuMTQ4LTEuNDM3LS40MjctLjU3OS0uODU0LTEuMzQxLTEuMTQ5LTIuMDExLS43Ny0xLjc0MS0xLjEyOS0zLjY5Ni0xLjkzOC01LjQ1Ny0uMzg4LS44NDItMS4wNDItMS42OTMtMS41OC0yLjQ0MS0uNTk1LS44My0xLjI2Mi0xLjQ0LTEuNzI0LTIuNDQyLS4xNjQtLjM1Ni0uMzg3LS45MjctLjE0NC0xLjI5My4wNzctLjI0Ny4xODgtLjM1LjQzMi0uNDMxLjQxNi0uMzIxIDEuNTc2LjEwNyAyLjAxLjI4NyAxLjE1Mi40NzkgMi4xMTMuOTM0IDMuMDg5IDEuNTguNDY4LjMxMS45NDEuOTExIDEuNTA4IDEuMDc3aC42NDZjMS4wMTEuMjMyIDIuMTQ0LjA3MSAzLjA4OC4zNTggMS42Ny41MDggMy4xNjYgMS4yOTcgNC41MjQgMi4xNTUgNC4xMzkgMi42MTQgNy41MjIgNi4zMzQgOS44MzggMTAuNzcyLjM3Mi43MTUuNTM0IDEuMzk2Ljg2MSAyLjE1NC42NjIgMS41MjggMS40OTYgMy4xMDEgMi4xNTQgNC41OTYuNjU3IDEuNDkxIDEuMjk4IDIuOTk2IDIuMjI3IDQuMjM3LjQ4OC42NTIgMi4zNzQgMS4wMDIgMy4yMzEgMS4zNjQuNjAxLjI1NCAxLjU4NS41MTkgMi4xNTQuODYxIDEuMDg3LjY1NiAyLjE0MSAxLjQzNyAzLjE2IDIuMTU1LjUwOS4zNjIgMi4wNzYgMS4xNDkgMi4xNTQgMS43OTh6TTkwLjIzNyAzOS41OTNjLS41MjYtLjAxLS44OTkuMDU4LTEuMjkzLjE0NHYuMDcxaC4wNzJjLjI1MS41MTcuNjk0Ljg0OSAxLjAwNSAxLjI5M2wuNzE5IDEuNTA4LjA3MS0uMDcxYy40NDUtLjMxMy42NDgtLjgxNC42NDYtMS41OC0uMTc5LS4xODgtLjIwNS0uNDIzLS4zNTktLjY0Ni0uMjA0LS4zLS42MDItLjQ2OC0uODYxLS43MTl6Ii8+PC9zdmc+;" vertex="1" parent="21">
                    <mxGeometry x="70" y="176.88" width="90" height="90" as="geometry"/>
                </mxCell>
                <mxCell id="16" style="edgeStyle=orthogonalEdgeStyle;rounded=0;orthogonalLoop=1;jettySize=auto;html=1;exitX=1;exitY=0.25;exitDx=0;exitDy=0;entryX=0;entryY=0.25;entryDx=0;entryDy=0;fontSize=17;fontColor=#FF8000;" edge="1" parent="21" source="3" target="4">
                    <mxGeometry relative="1" as="geometry"/>
                </mxCell>
                <mxCell id="14" style="edgeStyle=orthogonalEdgeStyle;rounded=0;orthogonalLoop=1;jettySize=auto;html=1;entryX=0;entryY=0.25;entryDx=0;entryDy=0;fontSize=17;fontColor=#FF8000;" edge="1" parent="1" source="2" target="3">
                    <mxGeometry relative="1" as="geometry">
                        <Array as="points">
                            <mxPoint x="260" y="205"/>
                            <mxPoint x="260" y="205"/>
                        </Array>
                    </mxGeometry>
                </mxCell>
                <mxCell id="2" value="" style="rounded=0;whiteSpace=wrap;html=1;fillColor=none;dashed=1;strokeColor=#007FFF;" vertex="1" parent="1">
                    <mxGeometry x="60" y="155" width="160" height="180" as="geometry"/>
                </mxCell>
                <mxCell id="15" style="edgeStyle=orthogonalEdgeStyle;rounded=0;orthogonalLoop=1;jettySize=auto;html=1;exitX=-0.013;exitY=0.604;exitDx=0;exitDy=0;entryX=1;entryY=0.75;entryDx=0;entryDy=0;fontSize=17;fontColor=#FF8000;exitPerimeter=0;" edge="1" parent="1" source="3" target="2">
                    <mxGeometry relative="1" as="geometry">
                        <Array as="points"/>
                    </mxGeometry>
                </mxCell>
                <mxCell id="17" style="edgeStyle=orthogonalEdgeStyle;rounded=0;orthogonalLoop=1;jettySize=auto;html=1;exitX=-0.007;exitY=0.6;exitDx=0;exitDy=0;fontSize=17;fontColor=#FF8000;exitPerimeter=0;" edge="1" parent="1" source="4">
                    <mxGeometry relative="1" as="geometry">
                        <mxPoint x="540" y="290" as="targetPoint"/>
                        <Array as="points">
                            <mxPoint x="599" y="290"/>
                        </Array>
                    </mxGeometry>
                </mxCell>
                <mxCell id="6" value="Client Side" style="text;html=1;fontSize=17;fontStyle=1;verticalAlign=middle;align=center;dashed=1;fontColor=#007FFF;" vertex="1" parent="1">
                    <mxGeometry x="80" y="155" width="120" height="40" as="geometry"/>
                </mxCell>
                <mxCell id="7" value="Server Side" style="text;html=1;fontSize=17;fontStyle=1;verticalAlign=middle;align=center;dashed=1;fontColor=#FF8000;" vertex="1" parent="1">
                    <mxGeometry x="480" y="80" width="120" height="40" as="geometry"/>
                </mxCell>
                <mxCell id="8" value="" style="shape=image;verticalLabelPosition=bottom;labelBackgroundColor=#ffffff;verticalAlign=top;aspect=fixed;imageAspect=0;image=data:image/svg+xml,PHN2ZyB4bWxucz0iaHR0cDovL3d3dy53My5vcmcvMjAwMC9zdmciIGVuYWJsZS1iYWNrZ3JvdW5kPSJuZXcgMCAwIDEyOCAxMjgiIHZpZXdCb3g9IjAgMCAxMjggMTI4Ij48ZyBmaWxsPSIjNjFEQUZCIj48Y2lyY2xlIGN4PSI2NCIgY3k9IjQ3LjUiIHI9IjkuMyIvPjxwYXRoIGQ9Ik02NCA4MS43YzcuMyA3LjEgMTQuNSAxMS4zIDIwLjMgMTEuMyAxLjkgMCAzLjctLjQgNS4yLTEuMyA1LjItMyA3LjEtMTAuNSA1LjMtMjEuMi0uMy0xLjktLjctMy44LTEuMi01LjggMi0uNiAzLjgtMS4yIDUuNi0xLjggMTAuMS0zLjkgMTUuNy05LjMgMTUuNy0xNS4yIDAtNi01LjYtMTEuNC0xNS43LTE1LjItMS44LS43LTMuNi0xLjMtNS42LTEuOC41LTIgLjktMy45IDEuMi01LjggMS43LTEwLjktLjItMTguNS01LjQtMjEuNS0xLjUtLjktMy4zLTEuMy01LjItMS4zLTUuNyAwLTEzIDQuMi0yMC4zIDExLjMtNy4yLTcuMS0xNC40LTExLjMtMjAuMi0xMS4zLTEuOSAwLTMuNy40LTUuMiAxLjMtNS4yIDMtNy4xIDEwLjUtNS4zIDIxLjIuMyAxLjkuNyAzLjggMS4yIDUuOC0yIC42LTMuOCAxLjItNS42IDEuOC0xMC4xIDMuOS0xNS43IDkuMy0xNS43IDE1LjIgMCA2IDUuNiAxMS40IDE1LjcgMTUuMiAxLjguNyAzLjYgMS4zIDUuNiAxLjgtLjUgMi0uOSAzLjktMS4yIDUuOC0xLjcgMTAuNy4yIDE4LjMgNS4zIDIxLjIgMS41LjkgMy4zIDEuMyA1LjIgMS4zIDUuOC4yIDEzLTQgMjAuMy0xMXptLTUuNi0xMy41YzEuOC4xIDMuNy4xIDUuNi4xIDEuOSAwIDMuOCAwIDUuNi0uMS0xLjggMi40LTMuNyA0LjYtNS42IDYuNy0xLjktMi4xLTMuOC00LjMtNS42LTYuN3ptLTEyLjQtMTAuM2MxIDEuNyAxLjkgMy4zIDMgNC45LTMuMS0uNC02LS45LTguOC0xLjUuOS0yLjcgMS45LTUuNSAzLjEtOC4zLjggMS42IDEuNyAzLjMgMi43IDQuOXptLTUuOC0yNC4xYzIuOC0uNiA1LjctMS4xIDguOC0xLjUtMSAxLjYtMiAzLjItMyA0LjktMSAxLjctMS45IDMuMy0yLjcgNS0xLjMtMi45LTIuMy01LjctMy4xLTguNHptNS41IDEzLjdjMS4zLTIuNyAyLjctNS40IDQuMy04LjEgMS41LTIuNiAzLjItNS4yIDQuOS03LjggMy0uMiA2LS4zIDkuMS0uMyAzLjIgMCA2LjIuMSA5LjEuMyAxLjggMi42IDMuNCA1LjIgNC45IDcuOCAxLjYgMi43IDMgNS40IDQuMyA4LjEtMS4zIDIuNy0yLjcgNS40LTQuMyA4LjEtMS41IDIuNi0zLjIgNS4yLTQuOSA3LjgtMyAuMi02IC4zLTkuMS4zLTMuMiAwLTYuMi0uMS05LjEtLjMtMS44LTIuNi0zLjQtNS4yLTQuOS03LjgtMS42LTIuNy0zLTUuNC00LjMtOC4xem0zOS4xLTUuNGwtMi43LTVjLTEtMS43LTEuOS0zLjMtMy00LjkgMy4xLjQgNiAuOSA4LjggMS41LS45IDIuOC0xLjkgNS42LTMuMSA4LjR6bTAgMTAuOGMxLjIgMi44IDIuMiA1LjYgMy4xIDguMy0yLjguNi01LjcgMS4xLTguOCAxLjUgMS0xLjYgMi0zLjIgMy00LjkuOS0xLjUgMS44LTMuMiAyLjctNC45em0yLjMgMzQuN2MtLjguNS0xLjguNy0yLjkuNy00LjkgMC0xMS00LTE3LTEwIDIuOS0zLjEgNS43LTYuNiA4LjUtMTAuNSA0LjctLjQgOS4yLTEuMSAxMy40LTIuMS41IDEuOC44IDMuNiAxLjEgNS40IDEuNCA4LjUuMyAxNC42LTMuMSAxNi41em01LjItNTIuN2MxMS4yIDMuMiAxNy45IDguMSAxNy45IDEyLjYgMCAzLjktNC42IDcuOC0xMi43IDEwLjktMS42LjYtMy40IDEuMi01LjIgMS43LTEuMy00LjEtMi45LTguMy00LjktMTIuNiAyLTQuMyAzLjctOC41IDQuOS0xMi42em0tOC0yOC4yYzEuMSAwIDIgLjIgMi45LjcgMy4zIDEuOSA0LjUgNy45IDMuMSAxNi41LS4zIDEuNy0uNyAzLjUtMS4xIDUuNC00LjItLjktOC43LTEuNi0xMy40LTIuMS0yLjctMy45LTUuNi03LjQtOC41LTEwLjUgNi01LjkgMTIuMS0xMCAxNy0xMHptLTE0LjcgMjAuMWMtMS44LS4xLTMuNy0uMS01LjYtLjFzLTMuOCAwLTUuNi4xYzEuOC0yLjQgMy43LTQuNiA1LjYtNi43IDEuOSAyLjEgMy44IDQuNCA1LjYgNi43em0tMjguNy0xOS40Yy44LS41IDEuOC0uNyAyLjktLjcgNC45IDAgMTEgNCAxNyAxMC0yLjkgMy4xLTUuNyA2LjYtOC41IDEwLjUtNC43LjQtOS4yIDEuMS0xMy40IDIuMS0uNS0xLjgtLjgtMy42LTEuMS01LjQtMS40LTguNS0uMy0xNC41IDMuMS0xNi41em0tNS4yIDUyLjdjLTExLjItMy4yLTE3LjktOC4xLTE3LjktMTIuNiAwLTMuOSA0LjYtNy44IDEyLjctMTAuOSAxLjYtLjYgMy40LTEuMiA1LjItMS43IDEuMyA0LjEgMi45IDguMyA0LjkgMTIuNi0yIDQuMy0zLjcgOC42LTQuOSAxMi42em0yLjEgMTFjLjMtMS43LjctMy41IDEuMS01LjQgNC4yLjkgOC43IDEuNiAxMy40IDIuMSAyLjcgMy45IDUuNiA3LjQgOC41IDEwLjUtNiA1LjktMTIuMSAxMC0xNyAxMC0xLjEgMC0yLS4yLTIuOS0uNy0zLjQtMS45LTQuNS04LTMuMS0xNi41ek0zMy42IDExMi4zYzIuMi0yLjcgMi4zLTUuNyAxLjEtOC43LTEuMi0zLTMuNy00LjQtNi44LTQuNS0zLjctLjEtNy41IDAtMTEuMiAwaC0uN3YyNS45aDN2LTkuOGg0LjdjLjYgMCAxLjEuMiAxLjQuN2w2IDkuM2MuMS4yLjQuNS42LjVoMy45Yy0yLjQtMy43LTQuNy03LjItNy4xLTEwLjggMi4xLS4zIDMuOS0xIDUuMS0yLjZ6bS0xNC42LS4ydi05LjloMS4xYzIuMyAwIDQuNy0uMSA3IC4xIDIuNy4xIDQuNiAyLjIgNC42IDQuOXMtMi4yIDQuOC00LjkgNC45Yy0yLjQuMS00LjggMC03LjggMHpNNTcuNyAxMTMuNGMtMS42LTctOC04LjgtMTIuOS02LjYtMy44IDEuNy01LjUgNS01LjYgOS4xLS4xIDMuMS44IDUuOSAzLjIgOCAyLjcgMi40IDYgMi43IDkuNCAyLjEgMS45LS40IDMuNi0xLjMgNC45LTIuNy0uNS0uNy0xLTEuNC0xLjUtMi0yLjggMi40LTUuOSAzLjItOS4zIDEuNi0yLjItMS4xLTMuMy0zLjgtMy41LTUuOGgxNS41di0xLjNjLjEtLjkgMC0xLjctLjItMi40em0tMTUuMSAxLjZjLS4zLTMgMi43LTYuMiA2LTYuMiAzLjgtLjEgNi4yIDIuMiA2LjMgNi4yaC0xMi4zek03My4zIDEwNi4zYy0xLjUtLjMtMy4xLS40LTQuNi0uMy0yLjQuMi00LjUgMS4zLTYuMiAzLjEuNS43LjkgMS40IDEuNSAyLjIuMi0uMi40LS40LjYtLjUgMS42LTEuNSAzLjUtMi4zIDUuOC0yLjEgMS44LjEgMy41LjcgNCAyLjUuNCAxLjQuMyAyLjkuNCA0LjQtLjMgMC0uNC0uMS0uNS0uMi0yLjQtMi01LjEtMi40LTgtMS43LTIuNy43LTQuNCAyLjgtNC42IDUuNS0uMiAzLjEgMS4yIDUuNCAzLjkgNi41IDEuNy43IDMuNi43IDUuNC4zIDEuNC0uMyAyLTEuMSA0LTIuMnYxLjNoMi44YzAtNCAuMS04LjkgMC0xMy41IDAtMi45LTEuNy00LjctNC41LTUuM3ptMS40IDEyLjZjLS4xLjMgMCAuNiAwIC45IDAgMi4xLS41IDIuOC0yLjUgMy42LTEuNC41LTIuOS43LTQuNC4yLTEuNy0uNS0yLjktMi0yLjktMy43LS4xLTEuNyAxLTMuNCAyLjctMy45IDIuMy0uOCA0LjQtLjMgNi4zIDEuMS42LjUgMSAxIC44IDEuOHpNOTAuMyAxMDljMi42LS44IDUtLjMgNi44IDEuOWwuMy4yYy43LS42IDEuMy0xLjIgMi4xLTEuOS0uMy0uMy0uNC0uNS0uNi0uOC0yLjktMy4xLTguNi0zLjUtMTIuMS0xLTQuOSAzLjYtNC44IDEwLjYtMi40IDE0LjMgMi4zIDMuNSA1LjYgNC43IDkuNSA0LjIgMi4zLS4zIDQuMi0xLjQgNS43LTMuMy0uNy0uNi0xLjQtMS4yLTIuMS0xLjktLjIuMi0uMy4zLS40LjUtMi43IDMtNy4yIDIuNy05LjYtLjUtMS40LTEuOS0xLjctNC4xLTEuMy02LjMuMi0yLjUgMS41LTQuNSA0LjEtNS40ek0xMTEuMSAxMjIuNmMtLjIuMS0uMy4yLS4zLjItLjguNi0xLjYuNy0yLjUuNC0uOS0uNC0xLTEuMi0xLjEtMnYtMTEuNGMwLS4yIDAgLjIuMS0uOGgzLjh2LTNoLTR2LTVoLTN2NS40aC0yLjZjLS4yIDAtLjUuMi0uNS40LS4xLjcgMCAxLjIgMCAyLjJoMy4ydjEyLjc5OTk5OTk5OTk5OTk5OWMwIDEuNi40IDMgMS44IDMuOCAxLjUuOSA0LjQuNyA1LjctLjQuMi0uMS4zLS41LjMtLjYtLjMtLjYtLjYtMS4zLS45LTJ6Ii8+PC9nPjwvc3ZnPg==;" vertex="1" parent="1">
                    <mxGeometry x="110" y="225" width="60" height="60" as="geometry"/>
                </mxCell>
                <mxCell id="18" value="API req" style="text;html=1;strokeColor=none;fillColor=none;align=center;verticalAlign=middle;whiteSpace=wrap;rounded=0;dashed=1;fontSize=17;" vertex="1" parent="1">
                    <mxGeometry x="250" y="183.13" width="100" height="20" as="geometry"/>
                </mxCell>
                <mxCell id="19" value="API res" style="text;html=1;strokeColor=none;fillColor=none;align=center;verticalAlign=middle;whiteSpace=wrap;rounded=0;dashed=1;fontSize=17;" vertex="1" parent="1">
                    <mxGeometry x="250" y="265" width="100" height="20" as="geometry"/>
                </mxCell>
            </root>
        </mxGraphModel>
    </diagram>
</mxfile>